<svg width="130" height="15" viewBox="0 0 130 15" fill="none" xmlns="http://www.w3.org/2000/svg">
<path d="M13.2724 5.39751H10.4416C10.3899 5.03126 10.2843 4.70595 10.1249 4.42157C9.96545 4.13288 9.76079 3.88728 9.51088 3.68476C9.26097 3.48225 8.97228 3.32713 8.64481 3.21942C8.32165 3.1117 7.97049 3.05784 7.59131 3.05784C6.90622 3.05784 6.30945 3.22803 5.80101 3.56843C5.29257 3.90451 4.89832 4.39571 4.61825 5.04203C4.33818 5.68404 4.19814 6.46393 4.19814 7.3817C4.19814 8.32533 4.33818 9.11814 4.61825 9.76015C4.90263 10.4022 5.29904 10.8869 5.80747 11.2144C6.31591 11.5418 6.90406 11.7056 7.57192 11.7056C7.94679 11.7056 8.29365 11.656 8.6125 11.5569C8.93565 11.4578 9.22219 11.3135 9.4721 11.1239C9.72201 10.93 9.92883 10.6952 10.0926 10.4194C10.2606 10.1436 10.3769 9.82909 10.4416 9.47577L13.2724 9.4887C13.1992 10.0962 13.0161 10.6822 12.7231 11.2467C12.4344 11.8068 12.0444 12.3088 11.5532 12.7526C11.0663 13.1921 10.4847 13.5411 9.80818 13.7996C9.13601 14.0539 8.37551 14.181 7.52668 14.181C6.34607 14.181 5.29042 13.9138 4.35972 13.3795C3.43333 12.8452 2.70084 12.0718 2.16224 11.0593C1.62795 10.0467 1.36081 8.82084 1.36081 7.3817C1.36081 5.93826 1.63226 4.71026 2.17517 3.69769C2.71807 2.68513 3.45488 1.91385 4.38558 1.38387C5.31627 0.849582 6.36331 0.582437 7.52668 0.582437C8.29364 0.582437 9.00459 0.690157 9.65953 0.905596C10.3188 1.12104 10.9026 1.43558 11.4111 1.84922C11.9195 2.25856 12.3331 2.76053 12.652 3.35514C12.9751 3.94975 13.182 4.63054 13.2724 5.39751ZM19.713 14.1939C18.7091 14.1939 17.8408 13.9806 17.1083 13.554C16.3802 13.1232 15.8179 12.5242 15.4215 11.7573C15.025 10.986 14.8268 10.0919 14.8268 9.07506C14.8268 8.04957 15.025 7.15334 15.4215 6.38637C15.8179 5.6151 16.3802 5.01618 17.1083 4.58961C17.8408 4.15873 18.7091 3.94329 19.713 3.94329C20.717 3.94329 21.583 4.15873 22.3112 4.58961C23.0437 5.01618 23.6082 5.6151 24.0046 6.38637C24.401 7.15334 24.5992 8.04957 24.5992 9.07506C24.5992 10.0919 24.401 10.986 24.0046 11.7573C23.6082 12.5242 23.0437 13.1232 22.3112 13.554C21.583 13.9806 20.717 14.1939 19.713 14.1939ZM19.7259 12.061C20.1827 12.061 20.564 11.9318 20.8699 11.6733C21.1758 11.4104 21.4064 11.0528 21.5615 10.6004C21.7209 10.1479 21.8006 9.63304 21.8006 9.05567C21.8006 8.47829 21.7209 7.96339 21.5615 7.51097C21.4064 7.05854 21.1758 6.70091 20.8699 6.43808C20.564 6.17524 20.1827 6.04382 19.7259 6.04382C19.2649 6.04382 18.8771 6.17524 18.5626 6.43808C18.2523 6.70091 18.0175 7.05854 17.8581 7.51097C17.703 7.96339 17.6254 8.47829 17.6254 9.05567C17.6254 9.63304 17.703 10.1479 17.8581 10.6004C18.0175 11.0528 18.2523 11.4104 18.5626 11.6733C18.8771 11.9318 19.2649 12.061 19.7259 12.061ZM34.6494 6.90343L32.1288 7.05854C32.0857 6.8431 31.993 6.64921 31.8509 6.47686C31.7087 6.3002 31.5212 6.16016 31.2886 6.05675C31.0602 5.94903 30.7866 5.89517 30.4677 5.89517C30.0412 5.89517 29.6814 5.98566 29.3884 6.16663C29.0954 6.34329 28.9489 6.58027 28.9489 6.87758C28.9489 7.11456 29.0437 7.31492 29.2333 7.47865C29.4229 7.64239 29.7482 7.7738 30.2092 7.8729L32.006 8.23484C32.9711 8.43305 33.6907 8.7519 34.1647 9.19139C34.6386 9.63089 34.8756 10.2083 34.8756 10.9235C34.8756 11.5742 34.6839 12.1451 34.3004 12.6363C33.9212 13.1275 33.3999 13.511 32.7363 13.7867C32.0771 14.0582 31.3166 14.1939 30.4548 14.1939C29.1406 14.1939 28.0936 13.9203 27.3137 13.3731C26.5381 12.8215 26.0835 12.0718 25.95 11.1239L28.658 10.9817C28.7399 11.3824 28.9381 11.6883 29.2527 11.8995C29.5672 12.1063 29.9701 12.2097 30.4613 12.2097C30.9439 12.2097 31.3317 12.1171 31.6246 11.9318C31.922 11.7422 32.0728 11.4987 32.0771 11.2014C32.0728 10.9515 31.9672 10.7469 31.7604 10.5874C31.5536 10.4237 31.2347 10.2988 30.8038 10.2126L29.0846 9.87003C28.1151 9.67613 27.3934 9.34005 26.9195 8.86177C26.4498 8.3835 26.215 7.7738 26.215 7.03269C26.215 6.39499 26.3873 5.84562 26.732 5.38458C27.081 4.92354 27.5701 4.56807 28.1992 4.31816C28.8326 4.06825 29.5737 3.94329 30.4225 3.94329C31.6764 3.94329 32.6631 4.20828 33.3826 4.73826C34.1065 5.26824 34.5288 5.98997 34.6494 6.90343ZM36.6094 14V4.07255H39.2334V5.82408H39.3498C39.5566 5.24239 39.9013 4.7835 40.3839 4.44742C40.8665 4.11133 41.4438 3.94329 42.116 3.94329C42.7968 3.94329 43.3763 4.11349 43.8546 4.45388C44.3329 4.78997 44.6517 5.2467 44.8112 5.82408H44.9146C45.1171 5.25532 45.4833 4.80074 46.0133 4.46035C46.5476 4.11564 47.1788 3.94329 47.907 3.94329C48.8334 3.94329 49.5853 4.23844 50.1627 4.82875C50.7444 5.41474 51.0352 6.24634 51.0352 7.32353V14H48.2883V7.86644C48.2883 7.31492 48.1418 6.90127 47.8488 6.62551C47.5558 6.34975 47.1896 6.21187 46.7501 6.21187C46.2503 6.21187 45.8603 6.37129 45.5803 6.69014C45.3002 7.00468 45.1602 7.42048 45.1602 7.93754V14H42.4909V7.80827C42.4909 7.32138 42.3508 6.93359 42.0708 6.6449C41.795 6.35621 41.4309 6.21187 40.9785 6.21187C40.6726 6.21187 40.3968 6.28943 40.1512 6.44454C39.9099 6.59535 39.7182 6.80863 39.576 7.0844C39.4338 7.35585 39.3627 7.6747 39.3627 8.04095V14H36.6094ZM53.2101 14V4.07255H55.9634V14H53.2101ZM54.5932 2.79285C54.1838 2.79285 53.8327 2.65712 53.5397 2.38566C53.251 2.1099 53.1066 1.78028 53.1066 1.3968C53.1066 1.01762 53.251 0.692312 53.5397 0.420858C53.8327 0.145096 54.1838 0.00721415 54.5932 0.00721415C55.0025 0.00721415 55.3515 0.145096 55.6402 0.420858C55.9332 0.692312 56.0797 1.01762 56.0797 1.3968C56.0797 1.78028 55.9332 2.1099 55.6402 2.38566C55.3515 2.65712 55.0025 2.79285 54.5932 2.79285ZM62.6544 14.1939C61.6375 14.1939 60.7628 13.9785 60.0303 13.5476C59.3021 13.1124 58.742 12.5092 58.3499 11.7379C57.9621 10.9666 57.7682 10.079 57.7682 9.07506C57.7682 8.05818 57.9643 7.16626 58.3564 6.3993C58.7528 5.62803 59.3151 5.02695 60.0432 4.59607C60.7714 4.16089 61.6375 3.94329 62.6414 3.94329C63.5075 3.94329 64.2659 4.10056 64.9165 4.4151C65.5671 4.72964 66.082 5.1713 66.4612 5.74006C66.8404 6.30882 67.0493 6.97668 67.0881 7.74364H64.4899C64.4167 7.24813 64.2228 6.84957 63.9082 6.54795C63.598 6.24203 63.1908 6.08907 62.6867 6.08907C62.2601 6.08907 61.8874 6.2054 61.5686 6.43808C61.254 6.66644 61.0084 7.00038 60.8318 7.43987C60.6551 7.87937 60.5668 8.4115 60.5668 9.03628C60.5668 9.66967 60.6529 10.2083 60.8253 10.6521C61.002 11.0959 61.2497 11.4341 61.5686 11.6668C61.8874 11.8995 62.2601 12.0158 62.6867 12.0158C63.0012 12.0158 63.2835 11.9512 63.5334 11.8219C63.7876 11.6926 63.9966 11.5052 64.1603 11.2596C64.3283 11.0097 64.4382 10.7102 64.4899 10.3612H67.0881C67.045 11.1196 66.8382 11.7874 66.4677 12.3648C66.1014 12.9379 65.5951 13.386 64.9488 13.7092C64.3025 14.0323 63.5377 14.1939 62.6544 14.1939ZM68.9027 14V0.763407H74.1249C75.1289 0.763407 75.9841 0.955148 76.6908 1.33863C77.3974 1.7178 77.936 2.24563 78.3066 2.92211C78.6815 3.59428 78.8689 4.36986 78.8689 5.24885C78.8689 6.12785 78.6793 6.90343 78.3001 7.5756C77.921 8.24777 77.3716 8.77129 76.652 9.14615C75.9368 9.52102 75.0707 9.70845 74.0538 9.70845H70.7253V7.46572H73.6014C74.14 7.46572 74.5838 7.37309 74.9328 7.18781C75.2861 6.99822 75.549 6.73754 75.7213 6.40576C75.898 6.06968 75.9863 5.68404 75.9863 5.24885C75.9863 4.80936 75.898 4.42587 75.7213 4.09841C75.549 3.76663 75.2861 3.51026 74.9328 3.32929C74.5795 3.14401 74.1314 3.05137 73.5885 3.05137H71.7012V14H68.9027ZM84.9604 14.1939C83.9565 14.1939 83.0883 13.9806 82.3558 13.554C81.6276 13.1232 81.0653 12.5242 80.6689 11.7573C80.2725 10.986 80.0743 10.0919 80.0743 9.07506C80.0743 8.04957 80.2725 7.15334 80.6689 6.38637C81.0653 5.6151 81.6276 5.01618 82.3558 4.58961C83.0883 4.15873 83.9565 3.94329 84.9604 3.94329C85.9644 3.94329 86.8304 4.15873 87.5586 4.58961C88.2911 5.01618 88.8556 5.6151 89.252 6.38637C89.6484 7.15334 89.8466 8.04957 89.8466 9.07506C89.8466 10.0919 89.6484 10.986 89.252 11.7573C88.8556 12.5242 88.2911 13.1232 87.5586 13.554C86.8304 13.9806 85.9644 14.1939 84.9604 14.1939ZM84.9733 12.061C85.4301 12.061 85.8114 11.9318 86.1173 11.6733C86.4233 11.4104 86.6538 11.0528 86.8089 10.6004C86.9683 10.1479 87.048 9.63304 87.048 9.05567C87.048 8.47829 86.9683 7.96339 86.8089 7.51097C86.6538 7.05854 86.4233 6.70091 86.1173 6.43808C85.8114 6.17524 85.4301 6.04382 84.9733 6.04382C84.5123 6.04382 84.1245 6.17524 83.81 6.43808C83.4997 6.70091 83.2649 7.05854 83.1055 7.51097C82.9504 7.96339 82.8728 8.47829 82.8728 9.05567C82.8728 9.63304 82.9504 10.1479 83.1055 10.6004C83.2649 11.0528 83.4997 11.4104 83.81 11.6733C84.1245 11.9318 84.5123 12.061 84.9733 12.061ZM91.6369 14V4.07255H94.3062V5.80469H94.4096C94.5906 5.18853 94.8943 4.72318 95.3209 4.40864C95.7475 4.08979 96.2387 3.93036 96.7945 3.93036C96.9324 3.93036 97.081 3.93898 97.2405 3.95622C97.3999 3.97345 97.5399 3.99715 97.6606 4.02731V6.47039C97.5313 6.43162 97.3525 6.39715 97.1241 6.36698C96.8958 6.33682 96.6868 6.32174 96.4972 6.32174C96.0922 6.32174 95.7302 6.41007 95.4114 6.58673C95.0968 6.75908 94.8469 7.00038 94.6617 7.31061C94.4807 7.62084 94.3902 7.97847 94.3902 8.3835V14H91.6369ZM104.862 4.07255V6.14077H98.8837V4.07255H104.862ZM100.241 1.6941H102.994V10.9494C102.994 11.2036 103.033 11.4018 103.111 11.544C103.188 11.6819 103.296 11.7788 103.434 11.8348C103.576 11.8908 103.74 11.9189 103.925 11.9189C104.054 11.9189 104.184 11.9081 104.313 11.8865C104.442 11.8607 104.541 11.8413 104.61 11.8284L105.043 13.8772C104.905 13.9203 104.711 13.9698 104.461 14.0259C104.212 14.0862 103.908 14.1228 103.55 14.1357C102.887 14.1616 102.305 14.0732 101.805 13.8707C101.31 13.6682 100.924 13.3537 100.648 12.9271C100.372 12.5005 100.237 11.9619 100.241 11.3113V1.6941Z" fill="url(#paint0_linear_147_9642)"/>
<path d="M122.423 1.21737L123.246 3.20691C123.993 5.01484 125.437 6.44588 127.251 7.17746L129.291 8L127.251 8.82254C125.437 9.55413 123.993 10.9852 123.246 12.7931L122.423 14.7826L121.601 12.7931C120.853 10.9852 119.41 9.55413 117.595 8.82254L115.555 8L117.595 7.17746C119.41 6.44588 120.853 5.01484 121.601 3.20691L122.423 1.21737Z" fill="#CAEAFD"/>
<defs>
<linearGradient id="paint0_linear_147_9642" x1="6.19159" y1="11.0333" x2="9.93326" y2="30.4751" gradientUnits="userSpaceOnUse">
<stop stop-color="#8DD7F9"/>
<stop offset="0.283644" stop-color="#CBC9EE"/>
<stop offset="0.690854" stop-color="#C466CA"/>
<stop offset="1" stop-color="#4A4DCD"/>
</linearGradient>
</defs>
</svg>
