<svg xmlns="http://www.w3.org/2000/svg" width="256" height="256"><path fill-opacity=".016" d="M0 128.004v128.004l128.25-.254 128.25-.254.254-127.75L257.008 0H0v128.004m.485.496c0 70.4.119 99.053.265 63.672.146-35.38.146-92.98 0-128C.604 29.153.485 58.1.485 128.5" fill="#1976D2" fill-rule="evenodd"/><path fill-opacity=".645" d="M0 128v128h255V0H0v128m87.618-74.285c-.993.993-.71 29.11.299 29.734.504.311 2.979.849 5.5 1.195l4.583.628v-8.667c0-6.817.323-8.792 1.514-9.249 1.859-.713 50.495 7.606 52.236 8.935.974.743 1.25 13.28 1.25 56.709 0 43.387-.277 55.984-1.25 56.788-.879.726-8.675-.275-26.25-3.371-13.75-2.422-25.562-4.618-26.25-4.879-.821-.312-1.25-2.678-1.25-6.89 0-7.065-.547-7.604-7.75-7.634L87 167v23.841l2.75.569c14.191 2.938 71.884 12.561 72.922 12.162 1.108-.425 1.297-12.416 1.085-68.793L163.5 66.5l-35-6.189c-19.25-3.404-36.184-6.42-37.632-6.702-1.448-.281-2.91-.234-3.25.106" fill="#1976D2" fill-rule="evenodd"/><path fill-opacity=".225" d="M0 128v128h255V0H0v128m87-59.545v15.454l3.75.632c2.063.348 4.425.706 5.25.795 1.197.131 1.601-1.587 2-8.507.275-4.769.786-8.955 1.135-9.302.349-.347 12.156 1.418 26.238 3.921C139.454 73.952 151.206 76 151.488 76c.281 0 .512 25.65.512 57 0 56.465-.019 57-2.014 57-3.319 0-48.365-8.013-49.986-8.892-.996-.54-1.668-2.953-2-7.187l-.5-6.375-4.465-.758c-2.456-.416-4.834-.389-5.284.061-.449.449-.69 6.176-.534 12.725l.283 11.907 37.5 6.646c20.625 3.655 37.897 6.278 38.381 5.828.944-.876 1.5-136.406.564-137.343C163.399 66.066 90.761 53 88.272 53 87.298 53 87 56.615 87 68.455M64 125.25V156h87V95.041l-43.5-.27-43.501-.271.001 30.75" fill="#1976D2" fill-rule="evenodd"/><path fill-opacity=".971" d="M0 128v128h255V0H0v128m86.667-74.333c-1.294 1.293-.756 29.018.583 30.072 2.003 1.576 8.98 2.315 10.437 1.106.879-.73 1.313-3.673 1.313-8.908 0-4.301.338-8.003.75-8.229.73-.398 48.51 7.8 51 8.752.865.33 1.25 3.105 1.25 9.009V94H62.972l.264 31.25.264 31.25h88.501L152 173.25c0 12.272-.318 16.75-1.189 16.75-1.253 0-37.591-6.322-46.561-8.101L99 180.858l-.015-5.679c-.009-3.123-.377-6.249-.819-6.945-.452-.712-3.181-1.368-6.235-1.5L86.5 166.5l-.252 11.5c-.138 6.325.087 11.999.5 12.609.414.61 17.598 4.084 38.188 7.719 28.143 4.968 37.769 6.331 38.782 5.491 1.064-.883 1.325-5.972 1.243-24.218l-.104-23.101 33.821-.52c18.602-.286 33.372-.623 32.822-.75-.629-.144-.915-6.443-.771-16.98.126-9.212.238-22.487.25-29.5.019-11.399.206-12.769 1.771-12.929 3.764-.385-30.295-1.563-48.75-1.687l-19.5-.13.265-12.752c.146-7.014-.143-13.375-.642-14.135-.595-.909-13.219-3.567-36.765-7.741-36.432-6.46-39.509-6.891-40.691-5.709" fill="#1976D2" fill-rule="evenodd"/></svg>